<svg id="Layer_1" data-name="Layer 1" xmlns="http://www.w3.org/2000/svg" viewBox="0 0 89.48 79.25"><title>calendar</title><rect x="29.97" y="26.64" width="8.67" height="8.67"/><rect x="29.97" y="39.96" width="8.67" height="8.67"/><rect x="29.97" y="53.29" width="8.67" height="8.67"/><rect x="14.41" y="39.96" width="8.67" height="8.67"/><rect x="14.41" y="53.29" width="8.67" height="8.67"/><path d="M71.64,95a23.14,23.14,0,1,1,23.1-23.14A23.15,23.15,0,0,1,71.64,95Zm0-40.54A17.39,17.39,0,1,0,89,71.86,17.39,17.39,0,0,0,71.64,54.46Z" transform="translate(-5.26 -15.75)"/><path d="M71.86,74.5a1.92,1.92,0,0,1-2.58-.85h0a1.92,1.92,0,0,1,.84-2.6l12.44-6.27a1.92,1.92,0,0,1,2.59.85h0a1.91,1.91,0,0,1-.85,2.59Z" transform="translate(-5.26 -15.75)"/><path d="M68.29,72.41A3,3,0,1,1,71,75.62,3,3,0,0,1,68.29,72.41Z" transform="translate(-5.26 -15.75)"/><path d="M71.64,45.31a26.87,26.87,0,0,1,3.39.24V42.4H66.36v3.44A26.62,26.62,0,0,1,71.64,45.31Z" transform="translate(-5.26 -15.75)"/><path d="M59.47,48.29V42.4H50.8v8.67h4.4A26.46,26.46,0,0,1,59.47,48.29Z" transform="translate(-5.26 -15.75)"/><path d="M49.49,86.4h0A26.64,26.64,0,0,1,48,83.81H11.59V36.3H82.22V47.52h0a26.36,26.36,0,0,1,3,1.58l0.53,0.32a26.68,26.68,0,0,1,2.79,2V15.75H77.47V17a9.45,9.45,0,1,1-18.91,0v-1.2H35.25V17a9.45,9.45,0,1,1-18.91,0v-1.2H5.26v73h46A27.06,27.06,0,0,1,49.49,86.4Z" transform="translate(-5.26 -15.75)"/><rect x="6.49" width="69.25" height="12.25"/></svg>